<svg width="1280" height="720" viewBox="0 0 1280 720" fill="none" xmlns="http://www.w3.org/2000/svg">
<rect width="1280" height="720" fill="#F9F9F9"/>
<path d="M761.812 329.469C761.812 323.948 762.615 318.781 764.219 313.969C765.844 309.156 768.177 304.938 771.219 301.312H776.281C773.281 305.333 771.021 309.75 769.5 314.562C768 319.375 767.25 324.323 767.25 329.406C767.25 334.406 768.021 339.292 769.562 344.062C771.104 348.833 773.323 353.188 776.219 357.125H771.219C768.156 353.583 765.823 349.448 764.219 344.719C762.615 339.99 761.812 334.906 761.812 329.469ZM798.375 347.625C793.417 347.625 789.573 346.104 786.844 343.062C784.135 340 782.781 335.677 782.781 330.094C782.781 324.365 784.156 319.938 786.906 316.812C789.677 313.688 793.615 312.125 798.719 312.125C800.365 312.125 802.01 312.302 803.656 312.656C805.302 313.01 806.594 313.427 807.531 313.906L805.938 318.312C804.792 317.854 803.542 317.479 802.188 317.188C800.833 316.875 799.635 316.719 798.594 316.719C791.635 316.719 788.156 321.156 788.156 330.031C788.156 334.24 789 337.469 790.688 339.719C792.396 341.969 794.917 343.094 798.25 343.094C801.104 343.094 804.031 342.479 807.031 341.25V345.844C804.74 347.031 801.854 347.625 798.375 347.625ZM821.375 347H816.188V298.375H821.375V347ZM862.938 329.844C862.938 335.427 861.531 339.792 858.719 342.938C855.906 346.062 852.021 347.625 847.062 347.625C844 347.625 841.281 346.906 838.906 345.469C836.531 344.031 834.698 341.969 833.406 339.281C832.115 336.594 831.469 333.448 831.469 329.844C831.469 324.26 832.865 319.917 835.656 316.812C838.448 313.688 842.323 312.125 847.281 312.125C852.073 312.125 855.875 313.719 858.688 316.906C861.521 320.094 862.938 324.406 862.938 329.844ZM836.844 329.844C836.844 334.219 837.719 337.552 839.469 339.844C841.219 342.135 843.792 343.281 847.188 343.281C850.583 343.281 853.156 342.146 854.906 339.875C856.677 337.583 857.562 334.24 857.562 329.844C857.562 325.49 856.677 322.188 854.906 319.938C853.156 317.667 850.562 316.531 847.125 316.531C843.729 316.531 841.167 317.646 839.438 319.875C837.708 322.104 836.844 325.427 836.844 329.844ZM896.5 347V324.844C896.5 322.052 895.865 319.969 894.594 318.594C893.323 317.219 891.333 316.531 888.625 316.531C885.042 316.531 882.417 317.5 880.75 319.438C879.083 321.375 878.25 324.573 878.25 329.031V347H873.062V312.75H877.281L878.125 317.438H878.375C879.438 315.75 880.927 314.448 882.844 313.531C884.76 312.594 886.896 312.125 889.25 312.125C893.375 312.125 896.479 313.125 898.562 315.125C900.646 317.104 901.688 320.281 901.688 324.656V347H896.5ZM927.844 347.625C922.781 347.625 918.781 346.083 915.844 343C912.927 339.917 911.469 335.635 911.469 330.156C911.469 324.635 912.823 320.25 915.531 317C918.26 313.75 921.917 312.125 926.5 312.125C930.792 312.125 934.188 313.542 936.688 316.375C939.188 319.188 940.438 322.906 940.438 327.531V330.812H916.844C916.948 334.833 917.958 337.885 919.875 339.969C921.812 342.052 924.531 343.094 928.031 343.094C931.719 343.094 935.365 342.323 938.969 340.781V345.406C937.135 346.198 935.396 346.76 933.75 347.094C932.125 347.448 930.156 347.625 927.844 347.625ZM926.438 316.469C923.688 316.469 921.49 317.365 919.844 319.156C918.219 320.948 917.26 323.427 916.969 326.594H934.875C934.875 323.323 934.146 320.823 932.688 319.094C931.229 317.344 929.146 316.469 926.438 316.469ZM961.188 329.469C961.188 334.948 960.375 340.052 958.75 344.781C957.146 349.51 954.823 353.625 951.781 357.125H946.781C949.677 353.208 951.896 348.865 953.438 344.094C954.979 339.302 955.75 334.406 955.75 329.406C955.75 324.323 954.99 319.375 953.469 314.562C951.969 309.75 949.719 305.333 946.719 301.312H951.781C954.844 304.958 957.177 309.198 958.781 314.031C960.385 318.844 961.188 323.99 961.188 329.469Z" fill="black"/>
<path d="M743.859 261.23C743.859 261.23 741.366 245.023 733.712 237.885C724.007 228.52 713.124 228.472 708.135 227.923C672.416 225.545 618.837 225.545 618.837 225.545H618.726C618.726 225.545 565.143 225.545 529.423 227.923C524.433 228.472 513.557 228.52 503.846 237.885C496.194 245.023 493.704 261.23 493.704 261.23C493.704 261.23 491.149 280.259 491.149 299.291V317.134C491.149 336.166 493.704 355.198 493.704 355.198C493.704 355.198 496.194 371.403 503.846 378.542C513.557 387.911 526.314 387.612 531.993 388.593C552.414 390.4 618.777 390.957 618.777 390.957C618.777 390.957 672.416 390.883 708.135 388.505C713.123 387.955 724.004 387.911 733.709 378.542C741.364 371.403 743.856 355.198 743.856 355.198C743.856 355.198 746.409 336.166 746.409 317.134V299.291C746.409 280.259 743.856 261.229 743.856 261.229" fill="#CD201F"/>
<path d="M477.979 359.406H461.739V350.704C455.58 357.236 450.36 360.534 444.67 360.534C439.679 360.534 436.21 358.357 434.476 354.416C433.423 352.022 432.675 348.284 432.675 342.792V279.499H448.913V344.375C449.293 346.592 450.315 347.406 452.376 347.406C455.486 347.406 458.298 344.906 461.739 340.416V279.499H477.979V359.406ZM404.464 335.67C405.317 343.582 402.665 347.507 397.622 347.507C392.58 347.507 389.93 343.582 390.787 335.67V304.022C389.93 296.11 392.58 292.403 397.622 292.403C402.668 292.403 405.326 296.11 404.472 304.022L404.463 335.67H404.464ZM420.704 305.606C420.704 297.067 418.851 290.654 415.576 286.618C411.247 281.151 404.464 278.912 397.622 278.912C389.885 278.912 383.992 281.151 379.671 286.618C376.343 290.654 374.557 297.135 374.557 305.674L374.544 334.087C374.544 342.578 376.131 348.444 379.457 352.442C383.78 357.891 390.787 360.777 397.622 360.777C404.463 360.777 411.59 357.891 415.919 352.442C419.193 348.444 420.704 342.578 420.704 334.087V305.606H420.704ZM356.593 315.89V359.405H339.496V315.89C339.496 315.89 321.781 262.545 318.125 252.601H336.076L348.074 294.273L360.011 252.6H377.962L356.593 315.89V315.89Z" fill="black"/>
<path d="M694.246 301.62C694.246 294.224 696.436 292.207 701.604 292.207C706.735 292.207 708.777 294.408 708.777 301.718V310.354L694.246 310.369V301.62ZM725.049 322.222L725.046 306.049C725.046 297.601 723.247 291.417 720.009 287.418C715.675 282.009 709.514 279.145 701.75 279.145C693.847 279.145 687.685 282.009 683.211 287.418C679.922 291.417 678.006 297.946 678.006 306.4V334.089C678.006 342.49 680.114 348.37 683.399 352.326C687.877 357.727 694.038 360.425 702.133 360.425C710.219 360.425 716.568 357.598 720.849 351.855C722.733 349.321 723.946 346.448 724.469 343.275C724.609 341.84 725.017 338.571 725.017 333.957V331.716H708.776C708.776 337.461 708.808 340.878 708.662 341.657C707.777 345.49 705.559 347.405 701.75 347.405C696.436 347.405 694.19 343.73 694.246 336.431V322.222H725.049V322.222ZM651.503 336.463C651.503 344.375 649.488 347.408 645.025 347.408C642.478 347.408 639.543 346.195 636.953 343.799L636.97 295.817C639.557 293.455 642.478 292.21 645.025 292.21C649.488 292.21 651.503 294.533 651.503 302.445V336.463V336.463ZM653.305 279.023C647.612 279.023 641.953 282.264 636.953 287.958L636.97 253.39H621.584V359.409H636.97L636.994 351.441C642.164 357.363 647.804 360.426 653.305 360.426C659.467 360.426 663.97 357.374 666.037 351.493C667.067 348.143 667.744 342.985 667.744 335.673V304.028C667.744 296.538 666.707 291.417 665.674 288.238C663.61 282.319 659.467 279.023 653.305 279.023V279.023ZM608.764 359.406H592.527V350.704C586.366 357.236 581.149 360.534 575.459 360.534C570.468 360.534 566.999 358.357 565.266 354.416C564.209 352.022 563.461 348.283 563.461 342.792V280.292H579.702V344.375C580.081 346.592 581.1 347.406 583.165 347.406C586.274 347.406 589.086 344.906 592.527 340.416V280.292H608.765V359.406H608.764Z" fill="white"/>
<path d="M547.215 359.406H530.122V268.421H512.171V253.409L566.023 253.39V268.422H547.215V359.406V359.406Z" fill="white"/>
<path d="M276.059 484.701H263.786V436.737H276.059V440.524H268.298V480.888H276.059V484.701ZM333.193 456.315C333.193 462.599 331.6 467.541 328.413 471.139C325.244 474.738 320.831 476.537 315.173 476.537C309.39 476.537 304.924 474.774 301.772 471.247C298.639 467.702 297.073 462.707 297.073 456.261C297.073 449.87 298.648 444.919 301.799 441.41C304.95 437.883 309.426 436.12 315.227 436.12C320.867 436.12 325.271 437.91 328.44 441.491C331.609 445.071 333.193 450.013 333.193 456.315ZM301.907 456.315C301.907 461.632 303.035 465.67 305.291 468.427C307.564 471.166 310.859 472.536 315.173 472.536C319.524 472.536 322.809 471.166 325.029 468.427C327.249 465.688 328.359 461.65 328.359 456.315C328.359 451.033 327.249 447.032 325.029 444.311C322.827 441.571 319.56 440.202 315.227 440.202C310.876 440.202 307.564 441.58 305.291 444.337C303.035 447.077 301.907 451.069 301.907 456.315ZM373.644 476H368.434L346.977 443.048H346.762C347.048 446.916 347.191 450.46 347.191 453.683V476H342.975V436.737H348.131L369.535 469.555H369.75C369.714 469.071 369.634 467.523 369.508 464.909C369.383 462.277 369.338 460.397 369.374 459.269V436.737H373.644V476ZM385.44 476V436.737H390.005V471.864H407.327V476H385.44ZM415.014 476V436.737H419.58V476H415.014ZM462.044 476H456.834L435.377 443.048H435.162C435.449 446.916 435.592 450.46 435.592 453.683V476H431.375V436.737H436.532L457.936 469.555H458.15C458.115 469.071 458.034 467.523 457.909 464.909C457.783 462.277 457.739 460.397 457.774 459.269V436.737H462.044V476ZM495.728 476H473.84V436.737H495.728V440.792H478.406V453.441H494.68V457.47H478.406V471.918H495.728V476ZM543.167 436.737H548.082L533.929 476H529.417L515.345 436.737H520.179L529.202 462.143C530.241 465.061 531.064 467.899 531.673 470.656C532.317 467.755 533.159 464.864 534.197 461.981L543.167 436.737ZM554.506 476V436.737H559.072V476H554.506ZM602.208 455.993C602.208 462.474 600.444 467.433 596.917 470.871C593.408 474.29 588.351 476 581.744 476H570.868V436.737H582.899C589.004 436.737 593.749 438.429 597.132 441.813C600.516 445.197 602.208 449.923 602.208 455.993ZM597.374 456.154C597.374 451.033 596.085 447.175 593.507 444.579C590.947 441.983 587.133 440.685 582.066 440.685H575.433V472.052H580.992C586.435 472.052 590.526 470.718 593.265 468.051C596.004 465.365 597.374 461.4 597.374 456.154ZM633.877 476H611.99V436.737H633.877V440.792H616.555V453.441H632.83V457.47H616.555V471.918H633.877V476ZM677.685 456.315C677.685 462.599 676.091 467.541 672.904 471.139C669.735 474.738 665.322 476.537 659.665 476.537C653.882 476.537 649.415 474.774 646.264 471.247C643.131 467.702 641.564 462.707 641.564 456.261C641.564 449.87 643.139 444.919 646.291 441.41C649.442 437.883 653.917 436.12 659.718 436.12C665.358 436.12 669.762 437.91 672.931 441.491C676.1 445.071 677.685 450.013 677.685 456.315ZM646.398 456.315C646.398 461.632 647.526 465.67 649.782 468.427C652.056 471.166 655.35 472.536 659.665 472.536C664.015 472.536 667.3 471.166 669.521 468.427C671.741 465.688 672.851 461.65 672.851 456.315C672.851 451.033 671.741 447.032 669.521 444.311C667.318 441.571 664.051 440.202 659.718 440.202C655.368 440.202 652.056 441.58 649.782 444.337C647.526 447.077 646.398 451.069 646.398 456.315ZM727.648 448.178C727.648 452.152 726.288 455.214 723.566 457.362C720.863 459.493 716.987 460.558 711.938 460.558H707.319V476H702.753V436.737H712.932C722.743 436.737 727.648 440.551 727.648 448.178ZM707.319 456.637H711.428C715.474 456.637 718.401 455.984 720.209 454.677C722.018 453.37 722.922 451.275 722.922 448.393C722.922 445.797 722.071 443.863 720.371 442.592C718.67 441.321 716.02 440.685 712.421 440.685H707.319V456.637ZM736.893 476V436.737H741.458V471.864H758.78V476H736.893ZM791.147 476L786.26 463.512H770.522L765.688 476H761.069L776.592 436.576H780.432L795.874 476H791.147ZM784.836 459.403L780.271 447.238C779.68 445.698 779.071 443.809 778.445 441.571C778.051 443.29 777.487 445.179 776.753 447.238L772.134 459.403H784.836ZM814.357 476H809.792V440.792H797.357V436.737H826.791V440.792H814.357V476ZM838.292 476H833.726V436.737H855.613V440.792H838.292V455.16H854.566V459.215H838.292V476ZM897.219 456.315C897.219 462.599 895.625 467.541 892.438 471.139C889.27 474.738 884.856 476.537 879.199 476.537C873.416 476.537 868.949 474.774 865.798 471.247C862.665 467.702 861.098 462.707 861.098 456.261C861.098 449.87 862.674 444.919 865.825 441.41C868.976 437.883 873.452 436.12 879.252 436.12C884.892 436.12 889.296 437.91 892.465 441.491C895.634 445.071 897.219 450.013 897.219 456.315ZM865.932 456.315C865.932 461.632 867.06 465.67 869.316 468.427C871.59 471.166 874.884 472.536 879.199 472.536C883.549 472.536 886.835 471.166 889.055 468.427C891.275 465.688 892.385 461.65 892.385 456.315C892.385 451.033 891.275 447.032 889.055 444.311C886.853 441.571 883.585 440.202 879.252 440.202C874.902 440.202 871.59 441.58 869.316 444.337C867.06 447.077 865.932 451.069 865.932 456.315ZM911.566 459.672V476H907V436.737H917.77C922.586 436.737 926.139 437.659 928.431 439.503C930.741 441.347 931.896 444.123 931.896 447.829C931.896 453.021 929.264 456.53 924 458.356L934.662 476H929.264L919.757 459.672H911.566ZM911.566 455.751H917.823C921.046 455.751 923.409 455.115 924.913 453.844C926.417 452.555 927.169 450.631 927.169 448.07C927.169 445.474 926.399 443.603 924.859 442.458C923.338 441.312 920.885 440.739 917.501 440.739H911.566V455.751ZM959.375 476L946.055 441.195H945.84C946.09 443.952 946.216 447.229 946.216 451.024V476H942V436.737H948.875L961.309 469.125H961.523L974.065 436.737H980.886V476H976.321V450.702C976.321 447.802 976.446 444.651 976.697 441.249H976.482L963.054 476H959.375ZM1003.94 480.888H1011.7V440.524H1003.94V436.737H1016.21V484.701H1003.94V480.888Z" fill="black"/>
</svg>
