<svg width="1280" height="720" viewBox="0 0 1280 720" fill="none" xmlns="http://www.w3.org/2000/svg">
<rect width="1280" height="720" fill="#F8F9FA"/>
<path d="M465.234 378H437.531L392.812 300.234H392.18C393.07 313.969 393.516 323.766 393.516 329.625V378H374.039V275.203H401.531L446.18 352.195H446.672C445.969 338.836 445.617 329.391 445.617 323.859V275.203H465.234V378ZM558.906 299.391V310.289L546.602 313.453C548.852 316.969 549.977 320.906 549.977 325.266C549.977 333.703 547.023 340.289 541.117 345.023C535.258 349.711 527.102 352.055 516.648 352.055L512.781 351.844L509.617 351.492C507.414 353.18 506.312 355.055 506.312 357.117C506.312 360.211 510.25 361.758 518.125 361.758H531.484C540.109 361.758 546.672 363.609 551.172 367.312C555.719 371.016 557.992 376.453 557.992 383.625C557.992 392.812 554.148 399.938 546.461 405C538.82 410.062 527.828 412.594 513.484 412.594C502.516 412.594 494.125 410.672 488.312 406.828C482.547 403.031 479.664 397.688 479.664 390.797C479.664 386.062 481.141 382.102 484.094 378.914C487.047 375.727 491.383 373.453 497.102 372.094C494.898 371.156 492.977 369.633 491.336 367.523C489.695 365.367 488.875 363.094 488.875 360.703C488.875 357.703 489.742 355.219 491.477 353.25C493.211 351.234 495.719 349.266 499 347.344C494.875 345.562 491.594 342.703 489.156 338.766C486.766 334.828 485.57 330.188 485.57 324.844C485.57 316.266 488.359 309.633 493.938 304.945C499.516 300.258 507.484 297.914 517.844 297.914C520.047 297.914 522.648 298.125 525.648 298.547C528.695 298.922 530.641 299.203 531.484 299.391H558.906ZM498.227 389.109C498.227 392.062 499.633 394.383 502.445 396.07C505.305 397.758 509.289 398.602 514.398 398.602C522.086 398.602 528.109 397.547 532.469 395.438C536.828 393.328 539.008 390.445 539.008 386.789C539.008 383.836 537.719 381.797 535.141 380.672C532.562 379.547 528.578 378.984 523.188 378.984H512.078C508.141 378.984 504.836 379.898 502.164 381.727C499.539 383.602 498.227 386.062 498.227 389.109ZM506.031 325.125C506.031 329.391 506.992 332.766 508.914 335.25C510.883 337.734 513.859 338.977 517.844 338.977C521.875 338.977 524.828 337.734 526.703 335.25C528.578 332.766 529.516 329.391 529.516 325.125C529.516 315.656 525.625 310.922 517.844 310.922C509.969 310.922 506.031 315.656 506.031 325.125ZM635.281 349.453C635.281 358.734 631.93 366.047 625.227 371.391C618.57 376.734 609.289 379.406 597.383 379.406C586.414 379.406 576.711 377.344 568.273 373.219V352.969C575.211 356.062 581.07 358.242 585.852 359.508C590.68 360.773 595.086 361.406 599.07 361.406C603.852 361.406 607.508 360.492 610.039 358.664C612.617 356.836 613.906 354.117 613.906 350.508C613.906 348.492 613.344 346.711 612.219 345.164C611.094 343.57 609.43 342.047 607.227 340.594C605.07 339.141 600.641 336.82 593.938 333.633C587.656 330.68 582.945 327.844 579.805 325.125C576.664 322.406 574.156 319.242 572.281 315.633C570.406 312.023 569.469 307.805 569.469 302.977C569.469 293.883 572.539 286.734 578.68 281.531C584.867 276.328 593.398 273.727 604.273 273.727C609.617 273.727 614.703 274.359 619.531 275.625C624.406 276.891 629.492 278.672 634.789 280.969L627.758 297.914C622.273 295.664 617.727 294.094 614.117 293.203C610.555 292.312 607.039 291.867 603.57 291.867C599.445 291.867 596.281 292.828 594.078 294.75C591.875 296.672 590.773 299.18 590.773 302.273C590.773 304.195 591.219 305.883 592.109 307.336C593 308.742 594.406 310.125 596.328 311.484C598.297 312.797 602.914 315.188 610.18 318.656C619.789 323.25 626.375 327.867 629.938 332.508C633.5 337.102 635.281 342.75 635.281 349.453ZM725.789 378H704.344V332.086C704.344 320.742 700.125 315.07 691.688 315.07C685.688 315.07 681.352 317.109 678.68 321.188C676.008 325.266 674.672 331.875 674.672 341.016V378H653.227V268.594H674.672V290.883C674.672 292.617 674.508 296.695 674.18 303.117L673.688 309.445H674.812C679.594 301.758 687.188 297.914 697.594 297.914C706.828 297.914 713.836 300.398 718.617 305.367C723.398 310.336 725.789 317.461 725.789 326.742V378ZM765.953 338.555C765.953 346.336 767.219 352.219 769.75 356.203C772.328 360.188 776.5 362.18 782.266 362.18C787.984 362.18 792.086 360.211 794.57 356.273C797.102 352.289 798.367 346.383 798.367 338.555C798.367 330.773 797.102 324.938 794.57 321.047C792.039 317.156 787.891 315.211 782.125 315.211C776.406 315.211 772.281 317.156 769.75 321.047C767.219 324.891 765.953 330.727 765.953 338.555ZM820.305 338.555C820.305 351.352 816.93 361.359 810.18 368.578C803.43 375.797 794.031 379.406 781.984 379.406C774.438 379.406 767.781 377.766 762.016 374.484C756.25 371.156 751.82 366.398 748.727 360.211C745.633 354.023 744.086 346.805 744.086 338.555C744.086 325.711 747.438 315.727 754.141 308.602C760.844 301.477 770.266 297.914 782.406 297.914C789.953 297.914 796.609 299.555 802.375 302.836C808.141 306.117 812.57 310.828 815.664 316.969C818.758 323.109 820.305 330.305 820.305 338.555ZM882.195 379.406C872.961 379.406 865.719 376.055 860.469 369.352H859.344C860.094 375.914 860.469 379.711 860.469 380.742V412.594H839.023V299.391H856.461L859.484 309.586H860.469C865.484 301.805 872.914 297.914 882.758 297.914C892.039 297.914 899.305 301.5 904.555 308.672C909.805 315.844 912.43 325.805 912.43 338.555C912.43 346.945 911.188 354.234 908.703 360.422C906.266 366.609 902.773 371.32 898.227 374.555C893.68 377.789 888.336 379.406 882.195 379.406ZM875.867 315.07C870.57 315.07 866.703 316.711 864.266 319.992C861.828 323.227 860.562 328.594 860.469 336.094V338.414C860.469 346.852 861.711 352.898 864.195 356.555C866.727 360.211 870.711 362.039 876.148 362.039C885.758 362.039 890.562 354.117 890.562 338.273C890.562 330.539 889.367 324.75 886.977 320.906C884.633 317.016 880.93 315.07 875.867 315.07Z" fill="#131921"/>
<path d="M439.748 500.701H427.475V452.737H439.748V456.524H431.987V496.888H439.748V500.701ZM484.69 492H462.803V452.737H484.69V456.792H467.368V469.441H483.643V473.47H467.368V487.918H484.69V492ZM491.276 479.297V475.215H504.462V479.297H491.276ZM529.954 456.255C525.639 456.255 522.229 457.697 519.722 460.579C517.234 463.444 515.989 467.374 515.989 472.369C515.989 477.507 517.189 481.482 519.588 484.292C522.005 487.085 525.442 488.482 529.9 488.482C532.64 488.482 535.764 487.99 539.273 487.005V491.006C536.552 492.027 533.195 492.537 529.202 492.537C523.419 492.537 518.952 490.783 515.801 487.273C512.668 483.764 511.102 478.778 511.102 472.315C511.102 468.269 511.854 464.724 513.357 461.68C514.879 458.637 517.063 456.291 519.91 454.644C522.775 452.997 526.141 452.173 530.008 452.173C534.126 452.173 537.724 452.925 540.804 454.429L538.87 458.35C535.898 456.954 532.926 456.255 529.954 456.255ZM582.919 472.315C582.919 478.599 581.326 483.541 578.139 487.139C574.97 490.738 570.557 492.537 564.899 492.537C559.117 492.537 554.65 490.774 551.499 487.247C548.365 483.702 546.799 478.707 546.799 472.261C546.799 465.87 548.374 460.919 551.525 457.41C554.676 453.883 559.152 452.12 564.953 452.12C570.593 452.12 574.997 453.91 578.166 457.491C581.335 461.071 582.919 466.013 582.919 472.315ZM551.633 472.315C551.633 477.632 552.761 481.67 555.017 484.427C557.29 487.166 560.585 488.536 564.899 488.536C569.25 488.536 572.535 487.166 574.755 484.427C576.975 481.688 578.085 477.65 578.085 472.315C578.085 467.033 576.975 463.032 574.755 460.311C572.553 457.571 569.286 456.202 564.953 456.202C560.603 456.202 557.29 457.58 555.017 460.337C552.761 463.077 551.633 467.069 551.633 472.315ZM610.077 492L596.756 457.195H596.542C596.792 459.952 596.917 463.229 596.917 467.024V492H592.701V452.737H599.576L612.01 485.125H612.225L624.767 452.737H631.588V492H627.022V466.702C627.022 463.802 627.148 460.651 627.398 457.249H627.184L613.756 492H610.077ZM660.759 492L647.439 457.195H647.224C647.475 459.952 647.6 463.229 647.6 467.024V492H643.384V452.737H650.259L662.693 485.125H662.908L675.449 452.737H682.271V492H677.705V466.702C677.705 463.802 677.83 460.651 678.081 457.249H677.866L664.438 492H660.759ZM715.954 492H694.066V452.737H715.954V456.792H698.632V469.441H714.906V473.47H698.632V487.918H715.954V492ZM730.247 475.672V492H725.682V452.737H736.451C741.267 452.737 744.821 453.659 747.112 455.503C749.422 457.347 750.577 460.123 750.577 463.829C750.577 469.021 747.945 472.53 742.681 474.356L753.343 492H747.945L738.438 475.672H730.247ZM730.247 471.751H736.504C739.727 471.751 742.09 471.115 743.594 469.844C745.098 468.555 745.85 466.631 745.85 464.07C745.85 461.474 745.08 459.603 743.541 458.458C742.019 457.312 739.566 456.739 736.182 456.739H730.247V471.751ZM777.492 456.255C773.177 456.255 769.767 457.697 767.26 460.579C764.772 463.444 763.527 467.374 763.527 472.369C763.527 477.507 764.727 481.482 767.126 484.292C769.543 487.085 772.98 488.482 777.438 488.482C780.178 488.482 783.302 487.99 786.811 487.005V491.006C784.09 492.027 780.733 492.537 776.74 492.537C770.957 492.537 766.49 490.783 763.339 487.273C760.206 483.764 758.64 478.778 758.64 472.315C758.64 468.269 759.392 464.724 760.896 461.68C762.417 458.637 764.602 456.291 767.448 454.644C770.313 452.997 773.679 452.173 777.546 452.173C781.664 452.173 785.262 452.925 788.342 454.429L786.408 458.35C783.436 456.954 780.464 456.255 777.492 456.255ZM818.265 492H796.378V452.737H818.265V456.792H800.943V469.441H817.218V473.47H800.943V487.918H818.265V492ZM839.252 496.888H847.013V456.524H839.252V452.737H851.525V500.701H839.252V496.888Z" fill="black"/>
</svg>
